HIERARCHY
ROOT Hips
{
 OFFSET 0.000000 0.000000 0.000000
 CHANNELS 6 Xposition Yposition Zposition Yrotation Xrotation Zrotation
 JOINT Chest
 {
  OFFSET 0.000000 9.585900 0.002600
  CHANNELS 3 Yrotation Xrotation Zrotation
  JOINT Chest2
  {
   OFFSET 0.000000 9.601200 -0.005300
   CHANNELS 3 Yrotation Xrotation Zrotation
   JOINT Chest3
   {
    OFFSET 0.000000 9.561800 0.000000
    CHANNELS 3 Yrotation Xrotation Zrotation
    JOINT Chest4
    {
     OFFSET 0.000000 9.552100 0.000000
     CHANNELS 3 Yrotation Xrotation Zrotation
     JOINT Neck
     {
      OFFSET 0.000000 14.453000 0.000000
      CHANNELS 3 Yrotation Xrotation Zrotation
      JOINT Head
      {
       OFFSET 0.000000 8.936500 -0.011300
       CHANNELS 3 Yrotation Xrotation Zrotation
       End Site
       {
        OFFSET 0.000000 17.073600 -0.006000
       }
      }
     }
     JOINT RightCollar
     {
      OFFSET -2.921100 9.558500 0.000000
      CHANNELS 3 Yrotation Xrotation Zrotation
      JOINT RightShoulder
      {
       OFFSET -13.519700 0.000000 0.000000
       CHANNELS 3 Yrotation Xrotation Zrotation
       JOINT RightElbow
       {
        OFFSET 0.000000 -29.696600 0.000000
        CHANNELS 3 Yrotation Xrotation Zrotation
        JOINT RightWrist
        {
         OFFSET 0.000000 -24.004700 0.000000
         CHANNELS 3 Yrotation Xrotation Zrotation
         End Site
         {
          OFFSET 0.000000 -17.728500 0.000000
         }
        }
       }
      }
     }
     JOINT LeftCollar
     {
      OFFSET 2.921100 9.558500 0.000000
      CHANNELS 3 Yrotation Xrotation Zrotation
      JOINT LeftShoulder
      {
       OFFSET 13.519700 0.000000 0.000000
       CHANNELS 3 Yrotation Xrotation Zrotation
       JOINT LeftElbow
       {
        OFFSET 0.000000 -29.696600 0.000000
        CHANNELS 3 Yrotation Xrotation Zrotation
        JOINT LeftWrist
        {
         OFFSET 0.000000 -24.004700 0.000000
         CHANNELS 3 Yrotation Xrotation Zrotation
         End Site
         {
          OFFSET 0.000000 -17.728500 0.000000
         }
        }
       }
      }
     }
    }
   }
  }
 }
 JOINT RightHip
 {
  OFFSET -7.771700 -0.012900 -0.001300
  CHANNELS 3 Yrotation Xrotation Zrotation
  JOINT RightKnee
  {
   OFFSET 0.000000 -40.869800 0.001200
   CHANNELS 3 Yrotation Xrotation Zrotation
   JOINT RightAnkle
   {
    OFFSET 0.000000 -39.717900 0.002100
    CHANNELS 3 Yrotation Xrotation Zrotation
    JOINT RightToe
    {
     OFFSET 0.000000 -4.965400 11.033500
     CHANNELS 3 Yrotation Xrotation Zrotation
     End Site
     {
      OFFSET 0.000000 -1.423100 5.872300
     }
    }
   }
  }
 }
 JOINT LeftHip
 {
  OFFSET 7.771700 -0.012900 -0.001300
  CHANNELS 3 Yrotation Xrotation Zrotation
  JOINT LeftKnee
  {
   OFFSET 0.000000 -40.869800 0.001200
   CHANNELS 3 Yrotation Xrotation Zrotation
   JOINT LeftAnkle
   {
    OFFSET 0.000000 -39.717900 0.002100
    CHANNELS 3 Yrotation Xrotation Zrotation
    JOINT LeftToe
    {
     OFFSET 0.000000 -4.965400 11.033500
     CHANNELS 3 Yrotation Xrotation Zrotation
     End Site
     {
      OFFSET 0.000000 -1.423100 5.872300
     }
    }
   }
  }
 }
}
MOTION
Frames: 9
Frame Time: 0.008333
0.000000 85.388000 0.000000 0.000000 -5.767877 0.000000 0.000000 11.653817 0.000000 0.000000 -5.885947 0.000000 0.000000 -0.000000 0.000000 0.000000 -0.000000 0.000000 0.000000 12.528835 0.000000 0.000000 0.711642 0.000000 0.000000 -0.000000 0.000000 0.000000 0.000000 -90.000000 0.000000 -2.309062 0.000000 0.000000 2.309062 0.000000 0.000000 -0.000000 0.000000 0.000000 -0.000000 90.000000 0.000000 -2.309062 0.000000 0.000000 2.309062 0.000000 0.000000 8.520406 0.000000 0.000000 1.905762 0.000000 -0.000000 -4.658285 0.000000 0.000000 -0.000000 0.000000 0.000000 8.520406 0.000000 0.000000 1.905762 0.000000 -0.000000 -4.658285 0.000000 0.000000 -0.000000 0.000000
-63.403310 61.919977 15.216738 175.331999 -50.817008 -0.980715 5.182785 26.380207 0.872398 0.803153 4.493130 0.012570 1.277331 7.127506 0.049508 4.036700 21.557937 0.660439 -1.127186 16.529202 3.473133 -3.300617 -4.953186 6.842860 5.104051 3.385915 5.700508 -0.948613 -7.681682 -14.015789 -120.843310 -61.356918 155.861797 12.862486 10.160248 -9.528144 -10.118492 0.699902 -0.326728 -8.072151 -6.921513 19.267905 133.727530 -73.750706 -156.353788 3.400569 -2.241084 7.893240 1.144718 -16.458227 -2.674634 -9.294933 63.551675 -12.734800 1.199967 -6.729094 8.357347 0.027749 -0.233996 0.023570 -4.907648 -13.890986 4.697553 28.223341 74.790483 30.482777 1.422789 -9.558505 -6.305808 0.048787 0.221059 0.020506
-63.402521 61.920098 15.216746 175.337235 -50.813763 -0.985240 5.192779 26.373835 0.864302 0.806775 4.489915 0.009944 1.279773 7.122068 0.046068 4.034777 21.564320 0.681451 -1.364054 16.554032 3.453610 -3.737593 -4.880086 6.922108 5.106661 3.390263 5.691623 -0.964212 -7.677009 -14.013292 -120.822195 -61.367522 155.853953 12.853573 10.173601 -9.534741 -10.113064 0.686082 -0.340939 -8.086157 -6.916588 19.282353 133.666456 -73.737172 -156.326511 3.403765 -2.208879 7.917259 1.140522 -16.458974 -2.675540 -9.288035 63.549790 -12.725312 1.200320 -6.733827 8.353652 0.026709 -0.229495 0.021762 -4.907995 -13.895513 4.703479 28.231184 74.790718 30.487330 1.419501 -9.556913 -6.300712 0.049161 0.220834 0.020183
-63.401350 61.919839 15.217180 175.340689 -50.807221 -0.989545 5.200582 26.367727 0.858529 0.809550 4.487678 0.005893 1.272660 7.122130 0.058823 4.040982 21.558049 0.663953 -1.624038 16.587424 3.453526 -4.225911 -4.799345 7.017435 5.108506 3.396503 5.699971 -0.973557 -7.671368 -14.013449 -120.803415 -61.381722 155.846767 12.843602 10.153635 -9.552633 -10.108324 0.683248 -0.338847 -8.114238 -6.931046 19.297655 133.579763 -73.743508 -156.258724 3.441103 -2.190510 7.899660 1.137583 -16.464559 -2.673617 -9.283093 63.549374 -12.718186 1.198872 -6.738627 8.345596 0.028869 -0.225325 0.024870 -4.908049 -13.902791 4.710115 28.219918 74.792529 30.476463 1.419038 -9.556047 -6.299497 0.052512 0.221471 0.021187
-63.399835 61.919674 15.217651 175.345447 -50.801258 -0.995675 5.213259 26.360976 0.851714 0.809633 4.485507 0.007281 1.272975 7.120635 0.059611 4.057356 21.550761 0.647048 -1.916485 16.625466 3.471857 -4.765270 -4.708965 7.131986 5.107497 3.403544 5.707060 -0.990683 -7.661522 -13.997130 -120.794228 -61.382050 155.845294 12.835577 10.142826 -9.570871 -10.115801 0.689361 -0.322696 -8.164100 -6.979778 19.318798 133.423257 -73.788447 -156.090992 3.444306 -2.185508 7.903288 1.136159 -16.469344 -2.665750 -9.293570 63.547388 -12.728212 1.192149 -6.740341 8.343263 0.030279 -0.223801 0.022793 -4.910378 -13.908593 4.715216 28.217604 74.790417 30.476827 1.417582 -9.553655 -6.302332 0.056568 0.221844 0.022048
-63.399555 61.919171 15.218338 175.347383 -50.792814 -0.991463 5.215102 26.351933 0.840538 0.814136 4.482604 0.002245 1.279438 7.121578 0.055054 4.059263 21.549310 0.654418 -2.230291 16.654648 3.465661 -5.349625 -4.607087 7.263364 5.113972 3.404958 5.689816 -1.002524 -7.650180 -13.986711 -120.783113 -61.372829 155.837296 12.832866 10.145318 -9.581747 -10.111457 0.687293 -0.335796 -8.197612 -6.996533 19.350122 133.334197 -73.773758 -156.028605 3.452970 -2.161933 7.923421 1.137129 -16.480188 -2.669712 -9.297675 63.550267 -12.733015 1.191110 -6.738881 8.342599 0.031141 -0.226504 0.021818 -4.908490 -13.918045 4.712662 28.210042 74.787772 30.468908 1.418341 -9.548627 -6.302691 0.054263 0.220645 0.023416
-63.397994 61.919040 15.218908 175.347119 -50.787072 -0.992892 5.222001 26.343384 0.837062 0.812297 4.483228 0.005588 1.291617 7.112510 0.038762 4.072281 21.543448 0.647644 -2.571511 16.696981 3.485853 -5.971512 -4.495828 7.407915 5.115659 3.430235 5.652594 -1.027608 -7.652812 -13.932506 -120.775271 -61.351172 155.830186 12.835928 10.154106 -9.578875 -10.116344 0.704556 -0.336356 -8.234670 -7.011583 19.384149 133.169886 -73.712384 -155.918088 3.413967 -2.115721 7.977300 1.137214 -16.486466 -2.667733 -9.294832 63.549475 -12.729243 1.193109 -6.737079 8.342559 0.028233 -0.227527 0.019488 -4.904914 -13.925207 4.721256 28.206240 74.790274 30.463750 1.417642 -9.547173 -6.304105 0.051634 0.218629 0.027200
-63.396576 61.919977 15.218643 175.355667 -50.789170 -1.000691 5.242070 26.334072 0.823258 0.803802 4.483625 0.016736 1.303586 7.099521 0.014964 4.078238 21.544212 0.664413 -2.928438 16.747857 3.505170 -6.625002 -4.379179 7.566495 5.110632 3.455869 5.645969 -1.031663 -7.650399 -13.916859 -120.761139 -61.346651 155.821698 12.839135 10.153854 -9.576620 -10.114260 0.727683 -0.348295 -8.270629 -7.024358 19.419348 133.059919 -73.691256 -155.826573 3.403990 -2.102641 7.988290 1.137923 -16.483863 -2.661907 -9.279997 63.556389 -12.712517 1.170171 -6.742062 8.338024 0.035548 -0.226790 0.023182 -4.908854 -13.922956 4.727841 28.195267 74.791964 30.452252 1.414722 -9.545475 -6.307140 0.052066 0.216158 0.030143
-63.395903 61.920662 15.218614 175.361693 -50.788491 -1.004269 5.248217 26.333922 0.812199 0.813000 4.475032 0.002646 1.294270 7.103303 0.034288 4.082777 21.529162 0.598920 -3.286470 16.806307 3.574264 -7.306660 -4.258983 7.741012 5.110843 3.475377 5.681973 -1.034164 -7.643891 -13.905578 -120.750952 -61.370458 155.840324 12.842991 10.149696 -9.587595 -10.106943 0.756373 -0.321859 -8.301133 -7.031366 19.456832 133.003944 -73.691427 -155.777367 3.424942 -2.108338 7.990648 1.138862 -16.483442 -2.661246 -9.283672 63.556974 -12.715387 1.171548 -6.743836 8.340161 0.038610 -0.227805 0.022217 -4.909945 -13.923163 4.731566 28.203067 74.790694 30.459780 1.403808 -9.546027 -6.308505 0.055356 0.215491 0.031498
